<svg width="10" height="18" viewBox="0 0 10 18" fill="none" xmlns="http://www.w3.org/2000/svg">
<path d="M8.89751 9.39751L1.39751 16.8975C1.29088 16.9969 1.14984 17.051 1.00412 17.0484C0.85839 17.0458 0.719351 16.9868 0.616291 16.8837C0.513231 16.7807 0.454197 16.6416 0.451626 16.4959C0.449055 16.3502 0.503147 16.2091 0.602507 16.1025L7.70407 9.00001L0.602507 1.89751C0.503147 1.79088 0.449055 1.64984 0.451626 1.50412C0.454197 1.35839 0.513231 1.21935 0.616291 1.11629C0.719351 1.01323 0.85839 0.954197 1.00412 0.951626C1.14984 0.949055 1.29088 1.00315 1.39751 1.10251L8.89751 8.60251C9.00285 8.70798 9.06201 8.85094 9.06201 9.00001C9.06201 9.14907 9.00285 9.29204 8.89751 9.39751Z" fill="#343330"/>
</svg>
