<svg width="36" height="36" viewBox="0 0 36 36" fill="none" xmlns="http://www.w3.org/2000/svg">
<rect width="36" height="36" rx="16" fill="#EEEEEE"/>
<path d="M24.5312 11.2812H11.4688C11.1932 11.2812 10.9289 11.3965 10.734 11.6016C10.5392 11.8067 10.4297 12.0849 10.4297 12.375V23.625C10.4297 23.9151 10.5392 24.1933 10.734 24.3984C10.9289 24.6035 11.1932 24.7188 11.4688 24.7188H24.5312C24.8068 24.7188 25.0711 24.6035 25.266 24.3984C25.4608 24.1933 25.5703 23.9151 25.5703 23.625V12.375C25.5703 12.0849 25.4608 11.8067 25.266 11.6016C25.0711 11.3965 24.8068 11.2812 24.5312 11.2812ZM24.6797 23.625C24.6797 23.6664 24.664 23.7062 24.6362 23.7355C24.6084 23.7648 24.5706 23.7812 24.5312 23.7812H11.4688C11.4294 23.7812 11.3916 23.7648 11.3638 23.7355C11.336 23.7062 11.3203 23.6664 11.3203 23.625V12.375C11.3203 12.3336 11.336 12.2938 11.3638 12.2645C11.3916 12.2352 11.4294 12.2188 11.4688 12.2188H24.5312C24.5706 12.2188 24.6084 12.2352 24.6362 12.2645C24.664 12.2938 24.6797 12.3336 24.6797 12.375V23.625ZM21.4141 14.875C21.4141 15.8281 21.0544 16.7422 20.4141 17.4162C19.7738 18.0901 18.9055 18.4688 18 18.4688C17.0945 18.4688 16.2262 18.0901 15.5859 17.4162C14.9456 16.7422 14.5859 15.8281 14.5859 14.875C14.5859 14.7507 14.6329 14.6315 14.7164 14.5435C14.7999 14.4556 14.9131 14.4062 15.0312 14.4062C15.1494 14.4062 15.2626 14.4556 15.3461 14.5435C15.4296 14.6315 15.4766 14.7507 15.4766 14.875C15.4766 15.5795 15.7424 16.2551 16.2157 16.7533C16.6889 17.2514 17.3307 17.5312 18 17.5312C18.6693 17.5312 19.3111 17.2514 19.7843 16.7533C20.2576 16.2551 20.5234 15.5795 20.5234 14.875C20.5234 14.7507 20.5704 14.6315 20.6539 14.5435C20.7374 14.4556 20.8506 14.4062 20.9688 14.4062C21.0869 14.4062 21.2001 14.4556 21.2836 14.5435C21.3671 14.6315 21.4141 14.7507 21.4141 14.875Z" fill="#343330"/>
</svg>
