<svg width="20" height="20" viewBox="0 0 20 20" fill="none" xmlns="http://www.w3.org/2000/svg">
<path d="M19.3538 18.6462C19.4476 18.74 19.5003 18.8673 19.5003 19C19.5003 19.1327 19.4476 19.2599 19.3538 19.3537C19.2599 19.4475 19.1327 19.5003 19 19.5003C18.8673 19.5003 18.7401 19.4475 18.6463 19.3537L10 10.7075L1.35375 19.3537C1.25993 19.4475 1.13269 19.5003 1 19.5003C0.867321 19.5003 0.740074 19.4475 0.646254 19.3537C0.552433 19.2599 0.499725 19.1327 0.499725 19C0.499725 18.8673 0.552433 18.74 0.646253 18.6462L9.2925 9.99997L0.646253 1.35372C0.552433 1.2599 0.499725 1.13265 0.499725 0.999973C0.499725 0.867291 0.552433 0.740043 0.646253 0.646223C0.740073 0.552402 0.867321 0.499695 1 0.499695C1.13269 0.499695 1.25993 0.552402 1.35375 0.646223L10 9.29247L18.6463 0.646223C18.6927 0.599767 18.7479 0.562917 18.8086 0.537776C18.8693 0.512635 18.9343 0.499695 19 0.499695C19.0657 0.499695 19.1308 0.512635 19.1915 0.537776C19.2521 0.562917 19.3073 0.599767 19.3538 0.646223C19.4002 0.692678 19.4371 0.747828 19.4622 0.808525C19.4873 0.869221 19.5003 0.934275 19.5003 0.999973C19.5003 1.06567 19.4873 1.13072 19.4622 1.19142C19.4371 1.25212 19.4002 1.30727 19.3538 1.35372L10.7075 9.99997L19.3538 18.6462Z" fill="#343330"/>
</svg>
