<svg width="25" height="22" viewBox="0 0 25 22" fill="none" xmlns="http://www.w3.org/2000/svg">
<path d="M22.7375 2.38528C21.5895 1.2396 20.0343 0.595432 18.4124 0.593792C16.7906 0.592152 15.2341 1.23317 14.0838 2.37653L12.5 3.85091L10.9163 2.37653C9.76682 1.22854 8.20841 0.584181 6.58388 0.585206C4.95934 0.586232 3.40176 1.23256 2.25376 2.382C1.10577 3.53145 0.461409 5.08985 0.462434 6.71439C0.46346 8.33892 1.10979 9.89651 2.25923 11.0445L12.033 20.9604C12.094 21.0223 12.1667 21.0714 12.2469 21.1049C12.3271 21.1384 12.4131 21.1557 12.5 21.1557C12.5869 21.1557 12.6729 21.1384 12.7531 21.1049C12.8333 21.0714 12.906 21.0223 12.967 20.9604L22.7375 11.0489C23.3065 10.4801 23.7579 9.80478 24.0658 9.06152C24.3737 8.31826 24.5322 7.52161 24.5322 6.71708C24.5322 5.91255 24.3737 5.1159 24.0658 4.37264C23.7579 3.62938 23.3065 2.95407 22.7375 2.38528ZM21.8056 10.1236L12.5 19.5648L3.19111 10.1203C2.29384 9.21673 1.79125 7.9944 1.79342 6.72102C1.79559 5.44765 2.30235 4.22704 3.20269 3.32655C4.10303 2.42607 5.32356 1.91911 6.59693 1.91674C7.87031 1.91436 9.09272 2.41676 9.99642 3.31388C10.0017 3.31955 10.0076 3.32468 10.0139 3.32919L12.0527 5.22794C12.1741 5.34111 12.334 5.40404 12.5 5.40404C12.666 5.40404 12.8259 5.34111 12.9474 5.22794L14.9861 3.3281C14.9924 3.32359 14.9983 3.31846 15.0036 3.31278C15.4502 2.86357 15.981 2.50692 16.5657 2.26331C17.1504 2.01969 17.7774 1.8939 18.4108 1.89314C19.0443 1.89238 19.6716 2.01667 20.2569 2.25888C20.8421 2.50109 21.3739 2.85645 21.8215 3.3046C22.2691 3.75274 22.6239 4.28485 22.8654 4.87039C23.107 5.45594 23.2306 6.08341 23.2291 6.71683C23.2276 7.35024 23.1011 7.97713 22.8569 8.56155C22.6126 9.14597 22.2554 9.67641 21.8056 10.1225V10.1236Z" fill="#0D0D0D"/>
</svg>
