<svg width="24" height="24" viewBox="0 0 24 24" fill="none" xmlns="http://www.w3.org/2000/svg">
<rect width="24" height="24" rx="12" fill="#5E2400"/>
<path d="M3.7627 11.9951C3.7627 12.4737 4.16309 12.8643 4.63184 12.8643H10.9502V19.1826C10.9502 19.6514 11.3408 20.0518 11.8193 20.0518C12.2979 20.0518 12.6982 19.6514 12.6982 19.1826V12.8643H19.0068C19.4756 12.8643 19.876 12.4737 19.876 11.9951C19.876 11.5166 19.4756 11.1162 19.0068 11.1162H12.6982V4.80765C12.6982 4.3389 12.2979 3.93851 11.8193 3.93851C11.3408 3.93851 10.9502 4.3389 10.9502 4.80765V11.1162H4.63184C4.16309 11.1162 3.7627 11.5166 3.7627 11.9951Z" fill="white"/>
</svg>
